<?xml version="1.0" standalone="no"?>
<!DOCTYPE svg PUBLIC "-//W3C//DTD SVG 20010904//EN"
 "http://www.w3.org/TR/2001/REC-SVG-20010904/DTD/svg10.dtd">
<svg xmlns="http://www.w3.org/2000/svg" version="1.0" width="32.000000pt" height="32.000000pt" viewBox="0 0 64.000000 64.000000" preserveAspectRatio="xMidYMid meet">

<g transform="translate(0.000000,64.000000) scale(0.003125,-0.003125)" fill="#2e79c7" stroke="none">
<path d="M1710 20464 c-613 -89 -1135 -447 -1456 -999 -115 -198 -205 -464 -239 -706 -14 -103 -15 -938 -13 -8564 3 -8187 4 -8453 22 -8545 83 -426 262 -766 561 -1065 298 -298 640 -478 1065 -561 92 -18 358 -19 8545 -22 9326 -3 8535 -8 8794 59 344 89 644 262 906 524 262 262 435 562 524 906 66 258 61 -527 61 8749 0 9276 5 8491 -61 8749 -89 344 -262 644 -524 906 -292 292 -596 457 -1025 554 l-115 26 -8475 1 c-7169 2 -8490 0 -8570 -12z m15165 -9523 c469 -42 839 -106 1180 -205 115 -33 342 -110 351 -119 2 -2 3 -425 2 -940 l-3 -936 -100 65 c-715 463 -1868 677 -2655 494 -366 -86 -636 -250 -773 -472 -157 -252 -136 -570 52 -819 210 -277 585 -505 1411 -859 400 -171 444 -191 670 -305 582 -292 961 -565 1247 -899 241 -282 413 -628 486 -981 46 -220 52 -292 52 -625 -1 -353 -14 -476 -79 -732 -174 -690 -660 -1239 -1376 -1558 -398 -177 -847 -283 -1470 -347 -249 -25 -1040 -25 -1310 0 -749 71 -1310 205 -1787 428 l-103 48 0 1000 c0 551 4 1001 8 1001 5 0 51 -34 103 -75 716 -571 1667 -878 2558 -826 741 43 1195 293 1308 721 24 93 22 280 -5 381 -87 323 -401 612 -980 899 -191 96 -438 205 -802 357 -713 297 -1138 555 -1503 912 -386 378 -597 779 -688 1312 -30 179 -38 568 -15 769 66 568 284 1023 677 1410 511 504 1309 817 2294 899 72 6 148 13 170 15 81 8 964 -3 1080 -13z m-4995 -1006 l0 -825 -1280 0 -1280 0 0 -3655 0 -3655 -1025 0 -1025 0 0 3655 0 3655 -1275 0 -1275 0 0 825 0 825 3580 0 3580 0 0 -825z"/>
</g>
</svg>